inDegrees=yes
name=ik_S50_A09_T01
DataType=double
version=3
OpenSimVersion=4.3-2021-08-27-4bc7ad9
endheader
time	pelvis_tilt	pelvis_list	pelvis_rotation	pelvis_tx	pelvis_ty	pelvis_tz	hip_flexion_r	hip_adduction_r	hip_rotation_r	knee_angle_r	knee_angle_r_beta	ankle_angle_r	subtalar_angle_r	mtp_angle_r	hip_flexion_l	hip_adduction_l	hip_rotation_l	knee_angle_l	knee_angle_l_beta	ankle_angle_l	subtalar_angle_l	mtp_angle_l	lumbar_extension	lumbar_bending	lumbar_rotation	arm_flex_r	arm_add_r	arm_rot_r	elbow_flex_r	pro_sup_r	wrist_flex_r	wrist_dev_r	arm_flex_l	arm_add_l	arm_rot_l	elbow_flex_l	pro_sup_l	wrist_flex_l	wrist_dev_l
16.51999999999974	-4.410648489061731	-1.596086845722384	33.5671935865162	0	0.9399999999999999	0	38.76178292662497	-10.29278630358831	-9.94387356443803	49.68775321347767	0.8672148914935782	0	0	0	38.76178292662497	-10.29278630358831	-9.94387356443803	49.68775321347767	0.8672148914935782	0	0	0	-3.043637237603811	-0.9577069550388485	1.424315875386307	52.14046111439847	-23.6396231051487	14.35000174614141	105.2192049803949	35.82470553115716	0	0	51.38603744261627	-10.79114213371179	7.351167876670582	55.26465397487174	95.40276710212751	0	0
16.53999999999974	-4.350201650818896	-1.59020318229406	33.50922360412575	0	0.9399999999999999	0	38.76370447319026	-10.29247512256952	-9.943911897880746	49.68885419963237	0.8672341073269967	0	0	0	38.76370447319026	-10.29247512256952	-9.943911897880746	49.68885419963237	0.8672341073269967	0	0	0	-2.990208765212435	-0.9859230918967004	1.423969929195363	52.13063736760855	-23.62250087184833	14.23520177473049	105.2815180198122	35.6559842791244	0	0	51.33644132494327	-10.87176964641422	7.362856136988556	55.14848790518624	94.97619476413712	0	0
16.55999999999974	-4.331289049238449	-1.590618636790017	33.44874591027443	0	0.9399999999999999	0	38.77125342090743	-10.29124388433699	-9.944063249191744	49.69314348779398	0.8673089695279834	0	0	0	38.77125342090743	-10.29124388433699	-9.944063249191744	49.69314348779398	0.8673089695279834	0	0	0	-2.974236683421797	-0.9987541284225274	1.472379686892095	52.33114262878621	-23.89208121786945	13.86016935414383	105.8562635080524	34.86897536386336	0	0	51.35601521429344	-10.85854071000758	7.357621073810876	55.16609598016881	94.5986145048637	0	0
16.57999999999974	-4.316918973508794	-1.596724709417719	33.42685545260863	0	0.9399999999999999	0	38.777078931851	-10.29029804730184	-9.944179744992928	49.69646130264591	0.8673668763211213	0	0	0	38.777078931851	-10.29029804730184	-9.944179744992928	49.69646130264591	0.8673668763211213	0	0	0	-2.966201718878295	-1.011532563956804	1.483461960754513	52.49567757472906	-24.05005346868965	13.76889463897771	106.2945921764187	34.45222015147014	0	0	51.34872400547658	-10.90403888489057	7.369586620528492	55.15614281784914	94.51499076025506	0	0
16.59999999999973	-4.303964646583742	-1.611301014306257	33.40165057812385	0	0.9399999999999999	0	38.77896588643535	-10.28999377367893	-9.944217319243116	49.69754164358901	0.8673857318276226	0	0	0	38.77896588643535	-10.28999377367893	-9.944217319243116	49.69754164358901	0.8673857318276226	0	0	0	-2.963559691983059	-1.030835224996263	1.488184770789434	52.63954056531269	-24.11177299513049	13.81059289781207	106.4108379713291	34.41816314742182	0	0	51.41515459679214	-10.91781710636772	7.438643499771387	55.10272013292028	94.65736424398538	0	0
16.61999999999973	-4.286641291861198	-1.619337573033047	33.42019768343565	0	0.9399999999999999	0	38.78289173494602	-10.28935937332891	-9.944295617330727	49.69978273523954	0.8674248462557632	0	0	0	38.78289173494602	-10.28935937332891	-9.944295617330727	49.69978273523954	0.8674248462557632	0	0	0	-2.954443741249995	-1.045174254921372	1.471944539389142	52.7698431408806	-24.19729915635129	13.9791126821842	106.5853246507548	34.25606154381747	0	0	51.44712200733984	-10.89605290263932	7.465895374887897	54.94733844172568	94.88231861349723	0	0
16.63999999999973	-4.244984577299816	-1.622821684297668	33.44635962906879	0	0.9399999999999999	0	38.78412647647044	-10.28916064591919	-9.94432018269022	49.70048965672986	0.8674371843633225	0	0	0	38.78412647647044	-10.28916064591919	-9.94432018269022	49.70048965672986	0.8674371843633225	0	0	0	-2.922050637005658	-1.069967805111359	1.4580464295957	52.82599389511273	-24.26813656349135	14.20122744006902	106.6319847215009	34.22844030551114	0	0	51.42128224673971	-10.91134760931114	7.417564878914888	54.91196371795788	94.92592335930439	0	0
16.65999999999973	-4.245072898470719	-1.630192436649843	33.46959721392613	0	0.9399999999999999	0	38.78574370770095	-10.28890040585967	-9.94435235750861	49.70141520002004	0.8674533381411058	0	0	0	38.78574370770095	-10.28890040585967	-9.94435235750861	49.70141520002004	0.8674533381411058	0	0	0	-2.927328778227553	-1.073345035123565	1.421786750928539	52.9840505439546	-24.4002631289125	14.47753805252009	106.8167743174684	34.36678145796297	0	0	51.43438677543059	-10.93523957090272	7.226951410855643	54.8309216749616	95.15442402234736	0	0
16.67999999999973	-4.220572961074128	-1.643943512598625	33.50152804074268	0	0.9399999999999999	0	38.78750962133083	-10.2886156008762	-9.94438754525757	49.70242326206959	0.8674709321429349	0	0	0	38.78750962133083	-10.2886156008762	-9.94438754525757	49.70242326206959	0.8674709321429349	0	0	0	-2.916251618588009	-1.093696717840175	1.357293669712674	53.11497603093011	-24.4264845791174	14.71012949194224	106.8143257513942	34.1960950898471	0	2.955571613499097e-51	51.36716896339622	-11.11454987159099	6.848726413069558	54.67329963351051	95.6973272719799	0	2.955571613499097e-51
16.69999999999973	-4.214831555107244	-1.650044603451938	33.53018778378476	0	0.9399999999999999	0	38.78911666543404	-10.28835867415852	-9.944419386542553	49.70334789137951	0.8674870699687534	0	0	0	38.78911666543404	-10.28835867415852	-9.944419386542553	49.70334789137951	0.8674870699687534	0	0	0	-2.91481332101768	-1.102038841342438	1.363200659494265	53.23465604401223	-24.5726053272594	14.83875933054101	106.9472140815266	34.43409741621194	0	0	51.3351097910131	-11.06880628589701	6.839454954023285	54.5938254188369	95.75807209060463	0	0
16.71999999999973	-4.200881299525504	-1.659402151595247	33.50032783840802	0	0.9399999999999999	0	38.7911276809218	-10.28803525256661	-9.944459393277793	49.70449762378867	0.86750713658481	0	0	0	38.7911276809218	-10.28803525256661	-9.944459393277793	49.70449762378867	0.86750713658481	0	0	0	-2.908031488104039	-1.118875797969071	1.389044991484979	53.20484949980036	-24.56769401732283	14.80381837088201	107.0066216283883	34.779645616617	0	0	51.27574285084975	-11.0196220374583	7.002948406433905	54.59982498228783	95.71917312514115	0	0
16.73999999999973	-4.200986581701565	-1.670093508333167	33.45086202408993	0	0.9399999999999999	0	38.79279999960188	-10.28776751595001	-9.944492566807535	49.70545732182394	0.8675238864753505	0	0	0	38.79279999960188	-10.28776751595001	-9.944492566807535	49.70545732182394	0.8675238864753505	0	0	0	-2.913087267362906	-1.130664983368386	1.438462357499099	53.37976976707412	-24.6329902689091	14.89200735560644	107.0025430778883	35.00998535843952	0	0	51.24922841098613	-10.97759031322532	7.31677001595965	54.71161271688042	95.77366132321239	0	0
16.75999999999973	-4.191927099011628	-1.684808978320564	33.39702995920538	0	0.9399999999999999	0	38.79464843234838	-10.28747076969244	-9.944529304379317	49.70651472127757	0.8675423415773251	0	0	0	38.79464843234838	-10.28747076969244	-9.944529304379317	49.70651472127757	0.8675423415773251	0	0	0	-2.912707478801559	-1.150799904952282	1.485889991001381	53.53237644138771	-24.70432480955656	14.92189165562135	107.0594190313925	35.30444631053791	0	0	51.23330355492632	-10.92694413414282	7.690907505019832	54.80594119922072	95.73814596380247	0	0
16.77999999999973	-4.168889740295729	-1.693893804166117	33.34056549010801	0	0.9399999999999999	0	38.79644700354494	-10.28718231009621	-9.944565032418332	49.70754392234161	0.8675603045245576	0	0	0	38.79644700354494	-10.28718231009621	-9.944565032418332	49.70754392234161	0.8675603045245576	0	0	0	-2.897544556887457	-1.173915635981481	1.531947844351373	53.69721429216472	-24.78057880846195	14.91699956111279	107.1633731103972	35.65012841135876	0	0	51.16891374635711	-10.87406834085284	8.030145932901577	54.86613439447294	95.62744967076156	0	0
16.79999999999973	-4.133473257182331	-1.71885979948709	33.31130540290964	0	0.9399999999999999	0	38.79849471952419	-10.28685345342304	-9.944605750381331	49.70871348744318	0.8675807172863965	0	0	0	38.79849471952419	-10.28685345342304	-9.944605750381331	49.70871348744318	0.8675807172863965	0	0	0	-2.88082061589262	-1.216761984078245	1.573502005594848	53.82880127137217	-24.81299594978932	14.84243329129055	107.1762740638867	35.79621696640054	0	0	51.13331678098592	-10.81195826291036	8.331679352330138	54.9162813384988	95.44898293616936	0	0
16.81999999999973	-4.111364805565106	-1.748289565179142	33.23996169748261	0	0.9399999999999999	0	38.80302239674794	-10.28612544320299	-9.944695872307275	49.71129376329853	0.8676257515956821	0	0	0	38.80302239674794	-10.28612544320299	-9.944695872307275	49.71129376329853	0.8676257515956821	0	0	0	-2.878102770015568	-1.255400524491703	1.610256965811529	54.28083857107629	-24.76262030410318	14.6868105533335	107.0359038275064	36.21190171095894	0	0	51.07800698924078	-10.78451128032505	8.509510562570293	55.02407340893534	95.28678488490988	0	0
16.83999999999973	-4.108667817364495	-1.768371014072813	33.1788364591096	0	0.9399999999999999	0	38.80531496967043	-10.28575881853633	-9.944741352233551	49.71260563015851	0.8676486479917365	0	0	0	38.80531496967043	-10.28575881853633	-9.944741352233551	49.71260563015851	0.8676486479917365	0	0	0	-2.886191032077819	-1.275751055520489	1.643189207020784	54.56294189080683	-24.67898079320847	14.43012197711481	107.0785089934499	36.82320416597582	0	0	51.05713706390042	-10.7821758266394	8.630547469675992	55.14933940466517	95.1522388220301	0	0
16.85999999999973	-4.091663264711699	-1.787702535845901	33.12747580547447	0	0.9399999999999999	0	38.81080280459658	-10.28487910269748	-9.944850419686251	49.71573473216529	0.8677032611243854	0	0	0	38.81080280459658	-10.28487910269748	-9.944850419686251	49.71573473216529	0.8677032611243854	0	0	0	-2.882727985228458	-1.302020537559052	1.667342730512315	54.92759561373578	-24.48597680572576	14.15896307950511	106.7415888038925	37.91057815590026	0	0	51.05122031615334	-10.85673273229134	8.672673826610401	55.29236353058231	94.91111910300435	0	0
16.87999999999973	-4.092052220070005	-1.796169671375241	33.08828821057766	0	0.9399999999999999	0	38.81690825534606	-10.28390279865134	-9.94497161148046	49.71921753805842	0.8677640475544285	0	0	0	38.81690825534606	-10.28390279865134	-9.94497161148046	49.71921753805842	0.8677640475544285	0	0	0	-2.88779957050328	-1.310299198575439	1.700629712029821	55.42741860705222	-24.63814970187511	13.94126853732596	107.732059989953	37.58879453503475	0	0	51.04323181257366	-10.8466754551491	8.801356007779972	55.42487360261557	94.60425739247425	0	0
16.89999999999973	-4.094557671645425	-1.821420284548032	33.08589313567602	0	0.9399999999999999	0	38.82101942934028	-10.28325054013597	-9.94505281968493	49.72157702028299	0.8678052282878894	0	0	0	38.82101942934028	-10.28325054013597	-9.94505281968493	49.72157702028299	0.8678052282878894	0	0	0	-2.904760239377108	-1.328059303426427	1.683020803432653	55.90384306659128	-24.62538083551457	14.04491731007664	107.9185359629991	36.93903707156456	0	0	51.0966466320972	-10.85087557017131	8.95119106905531	55.4932329942311	94.35527476254329	0	0
